<svg xmlns="http://www.w3.org/2000/svg" width="288" height="54.713" viewBox="0 0 288 54.713"><path fill="#535456" d="M43.094 35.482c0 5.695 2.19 7.572 8.134 7.572 4.757 0 8.886-.813 10.138-1.064.688-.125.938.25.938.94v3.628c0 .5-.25.813-.75.938-2.13.5-7.572 1.126-11.765 1.126-11.453 0-14.144-4.568-14.144-13.204V28.41c0-7.947 3.316-12.328 14.768-12.328.626 0 1.378 0 2.19.062-1.252-1.126-2.003-2.88-2.003-5.694C50.6 3.004 56.046.125 64.056.125c9.262 0 15.207 3.504 15.207 15.52v3.566c2.815-1.5 7.133-3.128 11.952-3.128 4.442 0 8.26 1.377 8.26 8.886V41.05c0 1.815.562 2.253 1.69 2.253.437 0 .687 0 1.375-.125.562-.063.813 0 .813.75v3.317c0 .5-.188.688-.69.876-.75.25-2.44.44-4.505.44-5.255 0-6.194-3.004-6.194-6.634V26.472c0-3.692-1.877-4.505-4.13-4.505-2.378 0-5.444.875-8.572 2.377v16.583c0 1.377.188 1.877 1.688 2.003l1.753.125c.562.062.626.25.626.75v3.505c0 .438-.19.688-.69.688H68.25c-.502 0-.753-.188-.753-.688v-3.504c0-.5.188-.625.625-.688l1.815-.188c1.377-.188 1.628-.563 1.628-1.94V16.084c0-7.51-2.44-10.388-7.948-10.388-4.567 0-6.633 2.253-6.633 5.945 0 2.69 1.064 4.256 3.066 5.07l.814.125c.688.188.688.5.688.938l-.5 8.886c-.064.687-.376.812-.94.812h-2.94c-.5 0-.688-.25-.813-.813l-.94-4.882c-1.376-.188-3.38-.313-5.32-.313-5.13 0-7.006 3.066-7.006 6.883v7.134zM134.644 41.052c0 1.814.564 2.252 1.628 2.252.438 0 .688 0 1.44-.125.5-.064.812 0 .812.75v3.316c0 .5-.188.688-.688.876-.812.25-2.44.438-4.506.438-2.753 0-4.316-.813-5.193-2.127-2.128 1.063-5.757 2.19-10.263 2.19-9.387 0-10.7-4.255-10.7-9.01V38.36c0-4.944 1.438-9.136 11.89-9.136 3.316 0 6.257.188 8.072.375v-3.193c0-4.068-1.063-5.256-5.883-5.256-2.128 0-4.568.063-6.07.313l-1 4.63c-.125.69-.25.877-.813.877h-3.192c-.562 0-.75-.188-.813-.876l-.438-7.572c-.063-1.064-.125-1.44.625-1.69 1.252-.375 7.134-.75 11.765-.75 8.324 0 13.328 1.063 13.328 10.45v14.52zm-19.96-1.376c0 3.003 1.75 3.754 5.066 3.754 2.568 0 4.57-.5 7.386-1.69v-7.07c-2.753-.126-4.756-.19-7.135-.19-3.817 0-5.317 1.19-5.317 3.818v1.378zM170.428 41.052c0 1.814.562 2.252 1.688 2.252.438 0 .688 0 1.377-.125.563-.064.812 0 .812.75v3.316c0 .5-.187.688-.688.876-.75.25-2.44.438-4.506.438-2.688 0-4.254-.75-5.13-2.002-2.065 1-5.945 2.065-10.326 2.065-9.072 0-11.764-3.88-11.764-12.328v-7.822c0-8.51 2.69-12.39 11.764-12.39 3.817 0 7.26 1 9.262 1.815V8.012c0-1.69-.25-1.877-1.626-2.065l-1.252-.188c-.688-.126-.814-.313-.814-1.002V2.192c0-.626.188-.814.814-.876l4.88-.813c1.816-.312 3.006-.5 3.944-.5 1.188 0 1.564.688 1.564 1.502v39.547zm-7.51-17.96c-1.754-.813-3.943-1.563-6.822-1.563-4.567 0-6.568 1.125-6.568 6.882v7.947c0 5.32 2 6.82 6.568 6.82 2.628 0 5.068-.75 6.82-1.5V23.092zM185.26 35.295v.188c0 5.132.81 7.572 8.696 7.572 4.756 0 8.51-.688 11.138-1.126 1.064-.19 1.253-.063 1.253.875v3.38c0 1.063-.188 1.188-1.19 1.313-1.876.375-7.508 1.126-12.826 1.126-11.514 0-14.517-3.692-14.517-13.204v-6.695c0-10.7 5.632-12.64 14.767-12.64 8.824 0 13.33 1.688 13.33 9.76 0 8.136-4.255 9.45-14.206 9.45h-6.445zm0-4.943h6.194c6.07 0 7.07-.75 7.07-4.255 0-3.442-1.19-4.943-6.258-4.943-5.382 0-7.008 1.563-7.008 7.32v1.878zM229.313 47.248c-.25.563-.438.75-.94.75h-5.568c-.5 0-.75-.187-.938-.75l-9.51-23.78c-.502-1.188-.752-1.438-1.566-1.563l-1.688-.188c-.376-.062-.5-.375-.5-.75v-3.63c0-.376.187-.626.562-.626h13.142c.563 0 .625.19.625.626v3.505c0 .376-.187.626-.562.626l-1.062.188c-1.438.125-1.564.313-1 1.814l6.382 16.833 6.508-16.707c.563-1.564.376-1.69-1.064-1.814l-1.127-.19c-.375 0-.5-.25-.5-.625v-3.442c0-.688.062-.813.75-.813h10.764c.437 0 .625.25.625.625v3.63c0 .375-.188.688-.563.75l-1.69.19c-.875.124-1.062.374-1.438 1.313l-9.64 24.03z"/><path fill="#15A8DB" d="M30.438 20.23v-3.433c0-.266-.134-.51-.357-.657-.127-.083-.274-.125-.424-.125-.11 0-.22.022-.325.07L.465 29.805c-.28.126-.464.406-.464.715v2.982c0 .302.176.58.443.705l28.88 14.463c.102.05.217.074.332.074.148 0 .294-.042.418-.12.228-.146.364-.392.364-.662v-3.43c0-.3-.178-.58-.445-.705L6.26 32.053 29.97 20.947c.283-.126.466-.407.466-.717zM287.527 29.81l-28.88-13.726c-.1-.046-.208-.068-.32-.068-.148 0-.296.043-.426.126-.22.145-.354.39-.354.656v3.433c0 .31.183.592.46.715l23.72 11.11-23.73 11.77c-.272.128-.45.407-.45.71v3.428c0 .27.137.516.363.66.124.08.27.122.418.122.115 0 .23-.025.34-.076l28.867-14.46c.273-.128.45-.405.45-.707V30.52c0-.31-.183-.59-.458-.71zM258.247.312c-.145-.196-.38-.312-.624-.312h-2.965c-.347 0-.656.233-.752.567l-15.38 53.15c-.067.24-.02.488.128.685.146.194.38.31.624.31h2.963c.35 0 .658-.232.754-.566L258.376.996c.065-.236.017-.492-.13-.684z"/></svg>