<svg xmlns="http://www.w3.org/2000/svg" width="56.69" height="56.69"><title>Layer 1</title><g stroke="null"><path d="M39.1 25.5c-3.602 0-4.1 3.6-4.1 3.596h7.66s.05-3.6-3.56-3.596z"/><path d="M21.725 29.096h-6.79v6.233H21.376c.968-.02 2.8-.3 2.8-3.032 0-3.24-2.46-3.2-2.46-3.202z"/><path d="M28.11.355C12.677.355.16 12.865.16 28.3c0 15.43 12.51 27.95 27.95 27.947 15.433 0 27.95-12.51 27.95-27.947C56.06 12.87 43.55.35 28.11.355zm5.883 17.17h9.62V20.4h-9.62v-2.872zM29.13 32.59c0 7.12-7.41 6.88-7.41 6.88H9.585V16.154H21.72c3.686 0 6.6 2.04 6.6 6.208 0 4.17-3.56 4.44-3.56 4.44 4.69 0 4.37 5.79 4.37 5.79zm17.998-.382H35.044c0 4.33 4.1 4.06 4.1 4.058 3.875 0 3.74-2.51 3.74-2.51h4.105c0 6.66-7.98 6.2-7.98 6.203-9.575 0-8.96-8.91-8.96-8.916s-.01-8.96 8.96-8.958c9.438 0 8.12 10.12 8.12 10.122z"/><path d="M23.374 22.723c0-2.43-1.65-2.43-1.65-2.425h-6.789V25.5h6.368c1.098 0 2.07-.35 2.07-2.777z"/></g></svg>