<svg xmlns="http://www.w3.org/2000/svg" width="40" height="40" viewBox="236 236 40 40" enable-background="new 236 236 40 40"><path d="M247.355 261.364c0 .066-.076.12-.17.12s-.168-.054-.168-.12.076-.12.17-.12.168.054.168.12zm.233.274c-.11 0-.197.062-.197.14s.09.14.198.14.197-.062.197-.14-.088-.14-.197-.14zm.956.922c-.135 0-.244.078-.244.174 0 .095.11.173.244.173s.244-.078.244-.173c0-.096-.11-.174-.244-.174zm-2.18-1.9c-.07 0-.13.042-.13.093 0 .05.06.092.13.092.072 0 .13-.042.13-.092 0-.05-.057-.093-.13-.093zm.41.258c-.08 0-.145.046-.145.103s.063.103.143.103c.08 0 .144-.045.144-.102s-.065-.102-.144-.102zm1.257 1.18c-.12 0-.22.07-.22.155s.1.155.22.155.22-.07.22-.155-.098-.156-.22-.156zM276 256c0 11.046-8.954 20-20 20s-20-8.954-20-20 8.954-20 20-20 20 8.954 20 20zm-10.3 1.054c.058-.132.115-.265.166-.404 1.565-.126 3.178-.113 4.8.044l.025-.267c-1.6-.155-3.19-.17-4.737-.05.248-.794.38-1.69.37-2.71-.02-2.164-.742-3.85-1.877-5.248.218-1.32.054-2.637-.357-3.955-1.62.133-3.08.664-4.38 1.586-2.427-.492-4.853-.523-7.28 0-1.516-1.02-3.003-1.523-4.468-1.585-.434 1.452-.5 2.882-.134 4.29-1.278 1.355-1.767 3-1.743 4.824.014 1.042.174 1.97.47 2.79-1.522-.11-3.09-.096-4.664.057l.027.267c1.604-.155 3.2-.168 4.748-.047.057.138.114.275.18.406-1.68-.044-3.19.102-4.605.45l.064.26c1.436-.353 2.974-.495 4.69-.438 1.137 2.018 3.323 3.203 6.506 3.58-.74.6-1.137 1.31-1.24 2.11h-1.686c-2.265 0-2.882-2.887-5.227-2.603 2.275 1.13 1.82 4.735 5.462 4.735h1.53v3.307c.015.534-.218.892-.593 1.14 1.304.13 2.284-.52 2.284-1.318v-4.37c0-.39.41-.42.41-.42v5.103c.016.507-.23.795-.493 1.07 1.15.047 2.23-.183 2.278-1.16v-4.884s.403-.252.403 0v4.654c.012.825.724 1.493 2.233 1.39-.403-.324-.527-.652-.527-1.128v-5.046s.416-.02.416.42v4.255c0 .948 1.137 1.34 2.435 1.303-.426-.318-.714-.698-.715-1.207v-5.117c-.044-.754-.35-1.463-.95-2.123 2.91-.447 5.008-1.608 6.053-3.69 1.723-.06 3.266.082 4.705.436l.063-.26c-1.424-.352-2.946-.497-4.64-.45zm-13.804 6.24c-.15 0-.27.088-.27.193 0 .106.12.192.27.192.15 0 .27-.087.27-.193s-.12-.192-.27-.192zm-.894-.017c-.15 0-.27.087-.27.192 0 .105.12.19.27.19s.27-.085.27-.19c0-.106-.12-.193-.27-.193zm-.906-.03c-.15 0-.27.088-.27.193 0 .106.12.192.27.192s.27-.086.27-.192c0-.105-.12-.192-.27-.192zm-.86-.252c-.15 0-.27.086-.27.192s.12.192.27.192c.15 0 .272-.088.272-.193 0-.106-.12-.192-.27-.192z"/></svg>