<svg xmlns="http://www.w3.org/2000/svg" width="128pt" height="128pt" viewBox="0 0 128 128"><path fill="#fff" d="M0 0h128v128H0V0z"/><path d="M4.22 8.9c1.56-1.54 3.12-3.1 4.67-4.67 35.71-.35 71.43-.02 107.15-.17 4.26-.58 8.32 3.61 7.89 7.83-.03 35.05-.02 70.1 0 105.15.43 4.22-3.59 8.47-7.88 7.9-35.71-.13-71.42.18-107.13-.16-2.05-2.26-5.49-4.17-4.85-7.74C4.22 81 3.8 44.94 4.22 8.9z"/><path fill="#fff" d="M5.02 27.97c7.09-5.59 15.74-9.48 24.88-9.58 13.75-.11 27.5-.05 41.25-.09-2.66 2.64-5.86 4.76-9.12 6.58-3.73.37-7.47-.01-11.21.06 1.08 2.34 3.96 2.8 5.43 4.8 5.38 6.41 7.39 15.3 5.93 23.48-1.69 7.46-6.87 13.53-12.86 18.01-3.82 2.81-7.56 7.3-5.64 12.36 4.43 8.63 14.53 11.97 19.83 19.87 4.18 5.89 5.13 13.46 4.52 20.5-3.37.11-6.75.12-10.13.05-.1-4.03-.72-8.33-3.59-11.41-3.82-4.23-8.77-7.27-13.53-10.33-12.24-4.09-26.51-.61-35.7 8.45-.11-3.05-.12-6.1-.03-9.15 6.94-2.97 14.43-4.76 22-4.68 2.04.04 4.09.05 6.1-.29-2.13-2.87-4.83-5.76-5.05-9.52-.39-3.16.48-6.29 1.8-9.14-8.84.76-17.68-1.76-24.81-7.01-.22-14.32-.16-28.64-.07-42.96z"/><path fill="#fff" d="M90.71 19.46c3.18-.26 6.38-.31 9.56.01-.58 5.82-.18 11.68-.27 17.52 5.86-.41 11.74-.1 17.61-.29.15 3.05.08 6.11.11 9.16-5.88.3-11.78.02-17.66.19-.25 5.95 0 11.9-.18 17.85-3.03.11-6.05.1-9.08 0 .04-5.95-.16-11.9.16-17.85-6.05-.03-12.11-.25-18.15.2.03-3.06.01-6.12-.05-9.18 5.99-.61 12.03-.19 18.04-.26-.07-5.78 0-11.57-.09-17.35z"/><path d="M22.32 24.4c5.26-1.12 10.59 1.21 14.67 4.43 7.26 6.1 11.32 15.73 10.91 25.18.23 6.69-2.28 14.02-8.09 17.8-5.03 3.38-11.93 2.42-16.74-.91-10.59-7.28-15.52-21.45-12.68-33.84 1.38-5.9 5.79-11.4 11.93-12.66z"/></svg>