<svg xmlns="http://www.w3.org/2000/svg" width="40" height="40" viewBox="236 236 40 40" enable-background="new 236 236 40 40"><path d="M246.314 250.532c.732-.732 1.544-1.335 2.407-1.812 4.812-2.652 10.983-1.242 14.076 3.448l-3.742 3.743c-1.074-2.448-3.738-3.84-6.39-3.247-1 .223-1.947.72-2.723 1.496l-7.173 7.174c-2.178 2.178-2.178 5.722 0 7.9s5.722 2.178 7.9 0l2.212-2.212c2.01.798 4.168 1.117 6.296.957l-4.88 4.88c-4.186 4.186-10.97 4.186-15.156 0-4.185-4.185-4.185-10.97 0-15.154l7.174-7.174zm11.393-11.393l-4.88 4.88c2.128-.16 4.286.16 6.296.958l2.212-2.212c2.178-2.178 5.722-2.178 7.9 0s2.178 5.722 0 7.9l-7.175 7.175c-2.185 2.186-5.734 2.167-7.9 0-.505-.504-.94-1.133-1.212-1.75l-3.742 3.74c.393.598.802 1.113 1.327 1.638 1.354 1.354 3.078 2.363 5.06 2.84 2.57.62 5.322.276 7.688-1.028.864-.476 1.677-1.08 2.408-1.812l7.175-7.174c4.185-4.185 4.185-10.97 0-15.155-4.186-4.186-10.97-4.186-15.156 0z"/></svg>