<svg xmlns="http://www.w3.org/2000/svg" width="50" height="40" viewBox="0 0 50 40"><path d="M49.615 4.677c-1.846.86-3.814 1.354-5.785 1.6 2.093-1.23 3.69-3.2 4.432-5.538-1.97 1.106-4.062 1.968-6.4 2.46C40.016 1.23 37.432 0 34.48 0c-6.524 0-11.326 6.03-9.85 12.43C16.26 12.063 8.755 8 3.83 1.848 1.248 6.4 2.478 12.307 6.908 15.385c-1.6 0-3.2-.492-4.553-1.23-.123 4.676 3.2 9.107 8.123 10.09-1.477.37-2.954.493-4.554.124 1.23 4.06 5.046 6.892 9.478 7.015-4.307 3.2-9.6 4.678-15.015 4.062C4.815 38.277 10.108 40 15.893 40 34.6 40 45.186 24.125 44.57 9.97c1.968-1.478 3.692-3.324 5.045-5.293z"/></svg>